<svg version="1" xmlns="http://www.w3.org/2000/svg" width="853.333" height="853.333" viewBox="0 0 640.000000 640.000000"><path d="M47 78.3v22.3l26.8 11.2c14.7 6.2 27.2 11.6 27.8 12 2.9 2 176.5 204.6 176.1 205.5-.3.7-40.8 46.4-90 101.7L98.3 531.5l-27.7 12L43 555.4V599h192v-43.7l-29.2-11.8c-16.1-6.5-29.4-11.9-29.6-12-.5-.4 137.5-159.7 138.2-159.7C315.4 371.9 452 530 452 531c0 .4-3 2-6.7 3.5-3.8 1.5-16.8 6.7-29 11.7l-22.3 9V599h203v-43.6l-27.7-11.9-27.6-12-89.4-103.4L363 324.8l3.2-3.7c5.4-6.1 160.8-182 168.3-190.4l7-7.9 27-11.7 27-11.7.3-21.7.2-21.7H407l.2 21.6.3 21.6 29 11.8c16 6.5 28.9 12.1 28.9 12.5-.2 1.2-136.6 160-137.4 160-.9 0-136.7-157.6-137-159-.1-.6 12.9-6.2 28.9-12.5l29.1-11.5V56H47v22.3z"/></svg>